<svg xmlns="http://www.w3.org/2000/svg" viewBox="0 0 512 512">
  <defs>
    <linearGradient id="bg" x1="0%" y1="0%" x2="100%" y2="100%">
      <stop offset="0%" stop-color="#0f4767" />
      <stop offset="100%" stop-color="#0a6a77" />
    </linearGradient>
  </defs>
  <rect width="512" height="512" rx="128" fill="url(#bg)" />
  <path d="M118 324c0-68 55-123 123-123h30c68 0 123 55 123 123v32c0 21-17 38-38 38h-14a44 44 0 0 1-85 0h-98a44 44 0 0 1-85 0h-18c-21 0-38-17-38-38v-32Z" fill="#eff7ff"/>
  <path d="M180 180h152c42 0 76 34 76 76v20H104v-20c0-42 34-76 76-76Z" fill="#7ed1e7"/>
  <rect x="132" y="212" width="92" height="52" rx="16" fill="#0f4767"/>
  <rect x="238" y="212" width="142" height="52" rx="16" fill="#0f4767"/>
  <circle cx="172" cy="392" r="22" fill="#0f4767"/>
  <circle cx="318" cy="392" r="22" fill="#0f4767"/>
  <path d="M356 132a78 78 0 0 1 0 110" fill="none" stroke="#ffd471" stroke-linecap="round" stroke-width="20"/>
  <path d="M392 104a118 118 0 0 1 0 166" fill="none" stroke="#ffd471" stroke-linecap="round" stroke-width="20" opacity=".8"/>
</svg>
